# xmcd
#
# Track frame offsets: 
#        150
#        16755
#        34707
#        57792
#        77495
#        92450
#        114800
#        132170
#        149603
#        174802
#        190357
#        205077
#        224427
#        244322
#
# Disc length: 3544 seconds
#
# Revision: 0
# Processed by: cddbd v1.5.2PL0 Copyright (c) Steve Scherf et al.
# Submitted via: ExactAudioCopyFreeDBPlugin 1.0
#
DISCID=b30dd60e
DTITLE=Sheryl Crow - Be Myself
DYEAR=2017
DGENRE=Rock
TTITLE0=Alone in the Dark
TTITLE1=Halfway There
TTITLE2=Long Way Back
TTITLE3=Be Myself
TTITLE4=Roller Skate
TTITLE5=Love Will Save the Day
TTITLE6=Strangers Again
TTITLE7=Rest of Me
TTITLE8=Heartbeat Away
TTITLE9=Grow Up
TTITLE10=Woo Woo
TTITLE11=Disappearing World (Be Myself Outake)
TTITLE12=The World You Make
TTITLE13=Long Way Back (Acoustic Version)
EXTD=
EXTT0=
EXTT1=
EXTT2=
EXTT3=
EXTT4=
EXTT5=
EXTT6=
EXTT7=
EXTT8=
EXTT9=
EXTT10=
EXTT11=
EXTT12=
EXTT13=
PLAYORDER=
